# xmcd CD database file
#
# Track frame offsets:
#	182
#	19187
#	40147
#	50620
#	71812
#	93527
#	104530
#
# Disc length: 1611 seconds
#
# Revision: 0
# Processed by: cddbd v1.4PL0 Copyright (c) Steve Scherf et al.
# Submitted via: CDex 1.50
#
DISCID=5f064907
DTITLE=Holly Cole Trio - Energy Loudspeakers: Musical Truth
DYEAR=1900
DGENRE=Jazz
TTITLE0=I Can See Clearly Now
TTITLE1=Calling You
TTITLE2=Cry (If You Want To) Re-Mix
TTITLE3=Get Out Of Town
TTITLE4=Everyday Will Be Like A Holiday
TTITLE5=Don't Smoke In Bed
TTITLE6=Tennessee Waltz
EXTD=
EXTT0=
EXTT1=
EXTT2=
EXTT3=
EXTT4=
EXTT5=
EXTT6=
PLAYORDER=
